<mxfile host="app.diagrams.net" modified="2021-09-23T02:52:05.735Z" agent="5.0 (Windows NT 6.1; Win64; x64) AppleWebKit/537.36 (KHTML, like Gecko) Chrome/93.0.4577.82 Safari/537.36" etag="psnDMMlfBbvtCs6KFocG" version="14.9.3" type="github">
  <diagram name="Page-1" id="9361dd3d-8414-5efd-6122-117bd74ce7a7">
    <mxGraphModel dx="1268" dy="825" grid="1" gridSize="10" guides="1" tooltips="1" connect="1" arrows="1" fold="1" page="0" pageScale="1.5" pageWidth="826" pageHeight="1169" background="none" math="0" shadow="0">
      <root>
        <mxCell id="0" />
        <mxCell id="1" parent="0" />
        <mxCell id="69" value="" style="fillColor=#DEE8FF;strokeColor=none" parent="1" vertex="1">
          <mxGeometry x="-310" y="-200" width="1860" height="960" as="geometry" />
        </mxCell>
        <mxCell id="dmOB2V84UiR74X63JVFV-94" value="" style="edgeStyle=orthogonalEdgeStyle;rounded=0;orthogonalLoop=1;jettySize=auto;html=1;" edge="1" parent="1" source="dmOB2V84UiR74X63JVFV-92">
          <mxGeometry relative="1" as="geometry">
            <mxPoint x="390" y="10" as="targetPoint" />
          </mxGeometry>
        </mxCell>
        <mxCell id="dmOB2V84UiR74X63JVFV-92" value="获取相应的浏览器安装包" style="rounded=1;whiteSpace=wrap;html=1;" vertex="1" parent="1">
          <mxGeometry x="330" y="-130" width="120" height="60" as="geometry" />
        </mxCell>
        <mxCell id="dmOB2V84UiR74X63JVFV-98" style="edgeStyle=orthogonalEdgeStyle;rounded=0;orthogonalLoop=1;jettySize=auto;html=1;entryX=1;entryY=0.5;entryDx=0;entryDy=0;" edge="1" parent="1" source="dmOB2V84UiR74X63JVFV-97" target="dmOB2V84UiR74X63JVFV-92">
          <mxGeometry relative="1" as="geometry">
            <Array as="points">
              <mxPoint x="470" y="50" />
              <mxPoint x="470" y="-100" />
            </Array>
          </mxGeometry>
        </mxCell>
        <mxCell id="dmOB2V84UiR74X63JVFV-101" value="" style="edgeStyle=orthogonalEdgeStyle;rounded=0;orthogonalLoop=1;jettySize=auto;html=1;" edge="1" parent="1" source="dmOB2V84UiR74X63JVFV-97" target="dmOB2V84UiR74X63JVFV-100">
          <mxGeometry relative="1" as="geometry" />
        </mxCell>
        <mxCell id="dmOB2V84UiR74X63JVFV-97" value="&lt;span&gt;校验浏览器的md5值&lt;/span&gt;" style="rhombus;whiteSpace=wrap;html=1;" vertex="1" parent="1">
          <mxGeometry x="350" y="10" width="80" height="80" as="geometry" />
        </mxCell>
        <mxCell id="dmOB2V84UiR74X63JVFV-99" value="md5值不正确重新获取新的浏览器安装包" style="text;html=1;strokeColor=none;fillColor=none;align=center;verticalAlign=middle;whiteSpace=wrap;rounded=0;" vertex="1" parent="1">
          <mxGeometry x="480" y="-90" width="40" height="140" as="geometry" />
        </mxCell>
        <mxCell id="dmOB2V84UiR74X63JVFV-103" value="" style="edgeStyle=orthogonalEdgeStyle;rounded=0;orthogonalLoop=1;jettySize=auto;html=1;" edge="1" parent="1" source="dmOB2V84UiR74X63JVFV-100" target="dmOB2V84UiR74X63JVFV-102">
          <mxGeometry relative="1" as="geometry" />
        </mxCell>
        <mxCell id="dmOB2V84UiR74X63JVFV-100" value="安装及部署浏览器" style="whiteSpace=wrap;html=1;" vertex="1" parent="1">
          <mxGeometry x="330" y="180" width="120" height="60" as="geometry" />
        </mxCell>
        <mxCell id="dmOB2V84UiR74X63JVFV-105" value="" style="edgeStyle=orthogonalEdgeStyle;rounded=0;orthogonalLoop=1;jettySize=auto;html=1;" edge="1" parent="1" source="dmOB2V84UiR74X63JVFV-102">
          <mxGeometry relative="1" as="geometry">
            <mxPoint x="390" y="460" as="targetPoint" />
          </mxGeometry>
        </mxCell>
        <mxCell id="dmOB2V84UiR74X63JVFV-102" value="资源认证/金库出发等操作测试" style="whiteSpace=wrap;html=1;" vertex="1" parent="1">
          <mxGeometry x="330" y="320" width="120" height="60" as="geometry" />
        </mxCell>
        <mxCell id="dmOB2V84UiR74X63JVFV-106" value="日志数据记录" style="rounded=1;whiteSpace=wrap;html=1;" vertex="1" parent="1">
          <mxGeometry x="330" y="460" width="120" height="60" as="geometry" />
        </mxCell>
        <mxCell id="dmOB2V84UiR74X63JVFV-107" value="" style="edgeStyle=orthogonalEdgeStyle;rounded=0;orthogonalLoop=1;jettySize=auto;html=1;" edge="1" source="dmOB2V84UiR74X63JVFV-108" parent="1">
          <mxGeometry relative="1" as="geometry">
            <mxPoint x="390" y="10" as="targetPoint" />
          </mxGeometry>
        </mxCell>
        <mxCell id="dmOB2V84UiR74X63JVFV-108" value="获取相应的浏览器安装包" style="rounded=1;whiteSpace=wrap;html=1;" vertex="1" parent="1">
          <mxGeometry x="330" y="-130" width="120" height="60" as="geometry" />
        </mxCell>
        <mxCell id="dmOB2V84UiR74X63JVFV-109" style="edgeStyle=orthogonalEdgeStyle;rounded=0;orthogonalLoop=1;jettySize=auto;html=1;entryX=1;entryY=0.5;entryDx=0;entryDy=0;" edge="1" source="dmOB2V84UiR74X63JVFV-111" target="dmOB2V84UiR74X63JVFV-108" parent="1">
          <mxGeometry relative="1" as="geometry">
            <Array as="points">
              <mxPoint x="470" y="50" />
              <mxPoint x="470" y="-100" />
            </Array>
          </mxGeometry>
        </mxCell>
        <mxCell id="dmOB2V84UiR74X63JVFV-110" value="" style="edgeStyle=orthogonalEdgeStyle;rounded=0;orthogonalLoop=1;jettySize=auto;html=1;" edge="1" source="dmOB2V84UiR74X63JVFV-111" target="dmOB2V84UiR74X63JVFV-114" parent="1">
          <mxGeometry relative="1" as="geometry" />
        </mxCell>
        <mxCell id="dmOB2V84UiR74X63JVFV-111" value="&lt;span&gt;校验浏览器的md5值&lt;/span&gt;" style="rhombus;whiteSpace=wrap;html=1;" vertex="1" parent="1">
          <mxGeometry x="350" y="10" width="80" height="80" as="geometry" />
        </mxCell>
        <mxCell id="dmOB2V84UiR74X63JVFV-112" value="md5值不正确重新获取新的浏览器安装包" style="text;html=1;strokeColor=none;fillColor=none;align=center;verticalAlign=middle;whiteSpace=wrap;rounded=0;" vertex="1" parent="1">
          <mxGeometry x="480" y="-90" width="40" height="140" as="geometry" />
        </mxCell>
        <mxCell id="dmOB2V84UiR74X63JVFV-113" value="" style="edgeStyle=orthogonalEdgeStyle;rounded=0;orthogonalLoop=1;jettySize=auto;html=1;" edge="1" source="dmOB2V84UiR74X63JVFV-114" target="dmOB2V84UiR74X63JVFV-116" parent="1">
          <mxGeometry relative="1" as="geometry" />
        </mxCell>
        <mxCell id="dmOB2V84UiR74X63JVFV-114" value="安装及部署浏览器" style="whiteSpace=wrap;html=1;" vertex="1" parent="1">
          <mxGeometry x="330" y="180" width="120" height="60" as="geometry" />
        </mxCell>
        <mxCell id="dmOB2V84UiR74X63JVFV-115" value="" style="edgeStyle=orthogonalEdgeStyle;rounded=0;orthogonalLoop=1;jettySize=auto;html=1;" edge="1" source="dmOB2V84UiR74X63JVFV-116" parent="1">
          <mxGeometry relative="1" as="geometry">
            <mxPoint x="390" y="460" as="targetPoint" />
          </mxGeometry>
        </mxCell>
        <mxCell id="dmOB2V84UiR74X63JVFV-116" value="资源认证/金库出发等操作测试" style="whiteSpace=wrap;html=1;" vertex="1" parent="1">
          <mxGeometry x="330" y="320" width="120" height="60" as="geometry" />
        </mxCell>
        <mxCell id="dmOB2V84UiR74X63JVFV-117" value="日志数据记录" style="rounded=1;whiteSpace=wrap;html=1;" vertex="1" parent="1">
          <mxGeometry x="330" y="460" width="120" height="60" as="geometry" />
        </mxCell>
      </root>
    </mxGraphModel>
  </diagram>
</mxfile>
